<mxfile host="app.diagrams.net" modified="2020-09-16T23:00:15.004Z" agent="5.0 (Windows NT 10.0; Win64; x64) AppleWebKit/537.36 (KHTML, like Gecko) Chrome/85.0.4183.102 Safari/537.36" etag="ZBnqwGVYZv2D71qW6Rj1" version="13.7.2" type="github">
  <diagram id="RuPCcFKOz_Ih0Zocibwq" name="Page-1">
    <mxGraphModel dx="1422" dy="713" grid="1" gridSize="10" guides="1" tooltips="1" connect="1" arrows="1" fold="1" page="1" pageScale="1" pageWidth="850" pageHeight="1100" math="0" shadow="0">
      <root>
        <mxCell id="0" />
        <mxCell id="1" parent="0" />
        <mxCell id="ZQklRnI-i_4SyAPOa3xh-1" value="Department" style="rounded=0;whiteSpace=wrap;html=1;" vertex="1" parent="1">
          <mxGeometry x="210" y="150" width="120" height="60" as="geometry" />
        </mxCell>
        <mxCell id="ZQklRnI-i_4SyAPOa3xh-2" value="" style="edgeStyle=orthogonalEdgeStyle;rounded=0;orthogonalLoop=1;jettySize=auto;html=1;endArrow=none;endFill=0;" edge="1" parent="1" source="ZQklRnI-i_4SyAPOa3xh-3" target="ZQklRnI-i_4SyAPOa3xh-8">
          <mxGeometry relative="1" as="geometry" />
        </mxCell>
        <mxCell id="ZQklRnI-i_4SyAPOa3xh-3" value="Employee" style="rounded=0;whiteSpace=wrap;html=1;" vertex="1" parent="1">
          <mxGeometry x="680" y="140" width="120" height="60" as="geometry" />
        </mxCell>
        <mxCell id="ZQklRnI-i_4SyAPOa3xh-4" style="edgeStyle=none;rounded=0;orthogonalLoop=1;jettySize=auto;html=1;exitX=1;exitY=0.5;exitDx=0;exitDy=0;entryX=0;entryY=0.5;entryDx=0;entryDy=0;endArrow=none;endFill=0;" edge="1" parent="1" source="ZQklRnI-i_4SyAPOa3xh-5" target="ZQklRnI-i_4SyAPOa3xh-56">
          <mxGeometry relative="1" as="geometry" />
        </mxCell>
        <mxCell id="ZQklRnI-i_4SyAPOa3xh-5" value="Project" style="rounded=0;whiteSpace=wrap;html=1;" vertex="1" parent="1">
          <mxGeometry x="210" y="370" width="120" height="60" as="geometry" />
        </mxCell>
        <mxCell id="ZQklRnI-i_4SyAPOa3xh-6" value="Dependant" style="shape=ext;margin=3;double=1;whiteSpace=wrap;html=1;align=center;shadow=0;gradientColor=none;" vertex="1" parent="1">
          <mxGeometry x="680" y="380" width="120" height="60" as="geometry" />
        </mxCell>
        <mxCell id="ZQklRnI-i_4SyAPOa3xh-7" value="" style="edgeStyle=orthogonalEdgeStyle;rounded=0;orthogonalLoop=1;jettySize=auto;html=1;shape=link;" edge="1" parent="1" source="ZQklRnI-i_4SyAPOa3xh-8" target="ZQklRnI-i_4SyAPOa3xh-6">
          <mxGeometry relative="1" as="geometry" />
        </mxCell>
        <mxCell id="ZQklRnI-i_4SyAPOa3xh-8" value="" style="shape=rhombus;double=1;perimeter=rhombusPerimeter;whiteSpace=wrap;html=1;align=center;shadow=0;gradientColor=none;" vertex="1" parent="1">
          <mxGeometry x="680" y="260" width="120" height="60" as="geometry" />
        </mxCell>
        <mxCell id="ZQklRnI-i_4SyAPOa3xh-9" style="rounded=0;orthogonalLoop=1;jettySize=auto;html=1;exitX=1;exitY=1;exitDx=0;exitDy=0;entryX=0;entryY=0;entryDx=0;entryDy=0;endArrow=none;endFill=0;" edge="1" parent="1" source="ZQklRnI-i_4SyAPOa3xh-10" target="ZQklRnI-i_4SyAPOa3xh-1">
          <mxGeometry relative="1" as="geometry" />
        </mxCell>
        <mxCell id="ZQklRnI-i_4SyAPOa3xh-10" value="Name" style="ellipse;whiteSpace=wrap;html=1;align=center;fontStyle=4;shadow=0;gradientColor=none;" vertex="1" parent="1">
          <mxGeometry x="60" y="90" width="100" height="40" as="geometry" />
        </mxCell>
        <mxCell id="ZQklRnI-i_4SyAPOa3xh-11" style="edgeStyle=none;rounded=0;orthogonalLoop=1;jettySize=auto;html=1;exitX=0.5;exitY=1;exitDx=0;exitDy=0;endArrow=none;endFill=0;" edge="1" parent="1" source="ZQklRnI-i_4SyAPOa3xh-12" target="ZQklRnI-i_4SyAPOa3xh-1">
          <mxGeometry relative="1" as="geometry" />
        </mxCell>
        <mxCell id="ZQklRnI-i_4SyAPOa3xh-12" value="Number" style="ellipse;whiteSpace=wrap;html=1;align=center;fontStyle=4;shadow=0;gradientColor=none;" vertex="1" parent="1">
          <mxGeometry x="170" y="70" width="100" height="40" as="geometry" />
        </mxCell>
        <mxCell id="ZQklRnI-i_4SyAPOa3xh-13" style="edgeStyle=none;rounded=0;orthogonalLoop=1;jettySize=auto;html=1;exitX=0.5;exitY=1;exitDx=0;exitDy=0;entryX=0.5;entryY=0;entryDx=0;entryDy=0;endArrow=none;endFill=0;" edge="1" parent="1" source="ZQklRnI-i_4SyAPOa3xh-14" target="ZQklRnI-i_4SyAPOa3xh-1">
          <mxGeometry relative="1" as="geometry" />
        </mxCell>
        <mxCell id="ZQklRnI-i_4SyAPOa3xh-14" value="Locations" style="ellipse;shape=doubleEllipse;margin=3;whiteSpace=wrap;html=1;align=center;shadow=0;gradientColor=none;" vertex="1" parent="1">
          <mxGeometry x="290" y="70" width="100" height="40" as="geometry" />
        </mxCell>
        <mxCell id="ZQklRnI-i_4SyAPOa3xh-15" style="edgeStyle=none;rounded=0;orthogonalLoop=1;jettySize=auto;html=1;exitX=1;exitY=0.5;exitDx=0;exitDy=0;entryX=0;entryY=0.5;entryDx=0;entryDy=0;endArrow=none;endFill=0;" edge="1" parent="1" source="ZQklRnI-i_4SyAPOa3xh-16" target="ZQklRnI-i_4SyAPOa3xh-5">
          <mxGeometry relative="1" as="geometry" />
        </mxCell>
        <mxCell id="ZQklRnI-i_4SyAPOa3xh-16" value="Name" style="ellipse;whiteSpace=wrap;html=1;align=center;fontStyle=4;shadow=0;gradientColor=none;" vertex="1" parent="1">
          <mxGeometry x="40" y="400" width="100" height="40" as="geometry" />
        </mxCell>
        <mxCell id="ZQklRnI-i_4SyAPOa3xh-17" style="edgeStyle=none;rounded=0;orthogonalLoop=1;jettySize=auto;html=1;exitX=0.5;exitY=0;exitDx=0;exitDy=0;entryX=0;entryY=1;entryDx=0;entryDy=0;endArrow=none;endFill=0;" edge="1" parent="1" source="ZQklRnI-i_4SyAPOa3xh-18" target="ZQklRnI-i_4SyAPOa3xh-5">
          <mxGeometry relative="1" as="geometry" />
        </mxCell>
        <mxCell id="ZQklRnI-i_4SyAPOa3xh-18" value="Number" style="ellipse;whiteSpace=wrap;html=1;align=center;fontStyle=4;shadow=0;gradientColor=none;" vertex="1" parent="1">
          <mxGeometry x="70" y="470" width="100" height="40" as="geometry" />
        </mxCell>
        <mxCell id="ZQklRnI-i_4SyAPOa3xh-19" style="edgeStyle=none;rounded=0;orthogonalLoop=1;jettySize=auto;html=1;exitX=0.5;exitY=0;exitDx=0;exitDy=0;endArrow=none;endFill=0;entryX=0.15;entryY=0.983;entryDx=0;entryDy=0;entryPerimeter=0;" edge="1" parent="1" source="ZQklRnI-i_4SyAPOa3xh-20" target="ZQklRnI-i_4SyAPOa3xh-5">
          <mxGeometry relative="1" as="geometry">
            <mxPoint x="240" y="470" as="targetPoint" />
          </mxGeometry>
        </mxCell>
        <mxCell id="ZQklRnI-i_4SyAPOa3xh-20" value="Location" style="ellipse;whiteSpace=wrap;html=1;align=center;shadow=0;gradientColor=none;" vertex="1" parent="1">
          <mxGeometry x="200" y="500" width="100" height="40" as="geometry" />
        </mxCell>
        <mxCell id="ZQklRnI-i_4SyAPOa3xh-21" style="edgeStyle=none;rounded=0;orthogonalLoop=1;jettySize=auto;html=1;exitX=1;exitY=0;exitDx=0;exitDy=0;endArrow=none;endFill=0;" edge="1" parent="1" source="ZQklRnI-i_4SyAPOa3xh-18" target="ZQklRnI-i_4SyAPOa3xh-18">
          <mxGeometry relative="1" as="geometry" />
        </mxCell>
        <mxCell id="ZQklRnI-i_4SyAPOa3xh-22" style="edgeStyle=none;rounded=0;orthogonalLoop=1;jettySize=auto;html=1;exitX=0;exitY=0.5;exitDx=0;exitDy=0;entryX=1;entryY=0.25;entryDx=0;entryDy=0;endArrow=none;endFill=0;" edge="1" parent="1" source="ZQklRnI-i_4SyAPOa3xh-23" target="ZQklRnI-i_4SyAPOa3xh-3">
          <mxGeometry relative="1" as="geometry" />
        </mxCell>
        <mxCell id="ZQklRnI-i_4SyAPOa3xh-23" value="SSN" style="ellipse;whiteSpace=wrap;html=1;align=center;fontStyle=4;shadow=0;gradientColor=none;" vertex="1" parent="1">
          <mxGeometry x="810" y="140" width="100" height="40" as="geometry" />
        </mxCell>
        <mxCell id="ZQklRnI-i_4SyAPOa3xh-24" style="edgeStyle=none;rounded=0;orthogonalLoop=1;jettySize=auto;html=1;exitX=0;exitY=0.5;exitDx=0;exitDy=0;entryX=0.925;entryY=0.033;entryDx=0;entryDy=0;entryPerimeter=0;endArrow=none;endFill=0;" edge="1" parent="1" source="ZQklRnI-i_4SyAPOa3xh-25" target="ZQklRnI-i_4SyAPOa3xh-3">
          <mxGeometry relative="1" as="geometry" />
        </mxCell>
        <mxCell id="ZQklRnI-i_4SyAPOa3xh-25" value="Name" style="ellipse;whiteSpace=wrap;html=1;align=center;shadow=0;gradientColor=none;" vertex="1" parent="1">
          <mxGeometry x="810" y="100" width="100" height="40" as="geometry" />
        </mxCell>
        <mxCell id="ZQklRnI-i_4SyAPOa3xh-26" style="edgeStyle=none;rounded=0;orthogonalLoop=1;jettySize=auto;html=1;exitX=1;exitY=0.5;exitDx=0;exitDy=0;entryX=0.008;entryY=0.4;entryDx=0;entryDy=0;entryPerimeter=0;endArrow=none;endFill=0;" edge="1" parent="1" source="ZQklRnI-i_4SyAPOa3xh-27" target="ZQklRnI-i_4SyAPOa3xh-3">
          <mxGeometry relative="1" as="geometry" />
        </mxCell>
        <mxCell id="ZQklRnI-i_4SyAPOa3xh-27" value="Address" style="ellipse;whiteSpace=wrap;html=1;align=center;shadow=0;gradientColor=none;" vertex="1" parent="1">
          <mxGeometry x="540" y="90" width="100" height="40" as="geometry" />
        </mxCell>
        <mxCell id="ZQklRnI-i_4SyAPOa3xh-28" style="edgeStyle=none;rounded=0;orthogonalLoop=1;jettySize=auto;html=1;exitX=0.5;exitY=1;exitDx=0;exitDy=0;endArrow=none;endFill=0;" edge="1" parent="1" source="ZQklRnI-i_4SyAPOa3xh-29" target="ZQklRnI-i_4SyAPOa3xh-3">
          <mxGeometry relative="1" as="geometry" />
        </mxCell>
        <mxCell id="ZQklRnI-i_4SyAPOa3xh-29" value="Sex" style="ellipse;whiteSpace=wrap;html=1;align=center;shadow=0;gradientColor=none;" vertex="1" parent="1">
          <mxGeometry x="770" y="50" width="100" height="40" as="geometry" />
        </mxCell>
        <mxCell id="ZQklRnI-i_4SyAPOa3xh-30" style="edgeStyle=none;rounded=0;orthogonalLoop=1;jettySize=auto;html=1;exitX=0.5;exitY=1;exitDx=0;exitDy=0;entryX=0.25;entryY=0;entryDx=0;entryDy=0;endArrow=none;endFill=0;" edge="1" parent="1" source="ZQklRnI-i_4SyAPOa3xh-31" target="ZQklRnI-i_4SyAPOa3xh-3">
          <mxGeometry relative="1" as="geometry" />
        </mxCell>
        <mxCell id="ZQklRnI-i_4SyAPOa3xh-31" value="Salary" style="ellipse;whiteSpace=wrap;html=1;align=center;shadow=0;gradientColor=none;" vertex="1" parent="1">
          <mxGeometry x="660" y="40" width="100" height="40" as="geometry" />
        </mxCell>
        <mxCell id="ZQklRnI-i_4SyAPOa3xh-32" style="edgeStyle=none;rounded=0;orthogonalLoop=1;jettySize=auto;html=1;exitX=1;exitY=1;exitDx=0;exitDy=0;entryX=0.058;entryY=0.033;entryDx=0;entryDy=0;entryPerimeter=0;endArrow=none;endFill=0;" edge="1" parent="1" source="ZQklRnI-i_4SyAPOa3xh-33" target="ZQklRnI-i_4SyAPOa3xh-3">
          <mxGeometry relative="1" as="geometry" />
        </mxCell>
        <mxCell id="ZQklRnI-i_4SyAPOa3xh-33" value="Birthdate" style="ellipse;whiteSpace=wrap;html=1;align=center;shadow=0;gradientColor=none;" vertex="1" parent="1">
          <mxGeometry x="550" y="40" width="100" height="40" as="geometry" />
        </mxCell>
        <mxCell id="ZQklRnI-i_4SyAPOa3xh-34" style="edgeStyle=none;rounded=0;orthogonalLoop=1;jettySize=auto;html=1;exitX=1;exitY=1;exitDx=0;exitDy=0;endArrow=none;endFill=0;" edge="1" parent="1" source="ZQklRnI-i_4SyAPOa3xh-31" target="ZQklRnI-i_4SyAPOa3xh-31">
          <mxGeometry relative="1" as="geometry" />
        </mxCell>
        <mxCell id="ZQklRnI-i_4SyAPOa3xh-35" style="edgeStyle=none;rounded=0;orthogonalLoop=1;jettySize=auto;html=1;exitX=0.5;exitY=0;exitDx=0;exitDy=0;entryX=0.125;entryY=1.033;entryDx=0;entryDy=0;entryPerimeter=0;endArrow=none;endFill=0;" edge="1" parent="1" source="ZQklRnI-i_4SyAPOa3xh-36" target="ZQklRnI-i_4SyAPOa3xh-6">
          <mxGeometry relative="1" as="geometry" />
        </mxCell>
        <mxCell id="ZQklRnI-i_4SyAPOa3xh-36" value="Birthdate" style="ellipse;whiteSpace=wrap;html=1;align=center;shadow=0;gradientColor=none;" vertex="1" parent="1">
          <mxGeometry x="630" y="460" width="100" height="40" as="geometry" />
        </mxCell>
        <mxCell id="ZQklRnI-i_4SyAPOa3xh-37" style="edgeStyle=none;rounded=0;orthogonalLoop=1;jettySize=auto;html=1;exitX=1;exitY=0.5;exitDx=0;exitDy=0;entryX=0;entryY=0.5;entryDx=0;entryDy=0;endArrow=none;endFill=0;" edge="1" parent="1" source="ZQklRnI-i_4SyAPOa3xh-38" target="ZQklRnI-i_4SyAPOa3xh-6">
          <mxGeometry relative="1" as="geometry" />
        </mxCell>
        <mxCell id="ZQklRnI-i_4SyAPOa3xh-38" value="Relationship" style="ellipse;whiteSpace=wrap;html=1;align=center;shadow=0;gradientColor=none;" vertex="1" parent="1">
          <mxGeometry x="560" y="420" width="100" height="40" as="geometry" />
        </mxCell>
        <mxCell id="ZQklRnI-i_4SyAPOa3xh-39" style="edgeStyle=none;rounded=0;orthogonalLoop=1;jettySize=auto;html=1;exitX=0.5;exitY=0;exitDx=0;exitDy=0;entryX=0.75;entryY=1;entryDx=0;entryDy=0;endArrow=none;endFill=0;" edge="1" parent="1" source="ZQklRnI-i_4SyAPOa3xh-40" target="ZQklRnI-i_4SyAPOa3xh-6">
          <mxGeometry relative="1" as="geometry" />
        </mxCell>
        <mxCell id="ZQklRnI-i_4SyAPOa3xh-40" value="Sex" style="ellipse;whiteSpace=wrap;html=1;align=center;shadow=0;gradientColor=none;" vertex="1" parent="1">
          <mxGeometry x="740" y="450" width="100" height="40" as="geometry" />
        </mxCell>
        <mxCell id="ZQklRnI-i_4SyAPOa3xh-41" style="edgeStyle=none;rounded=0;orthogonalLoop=1;jettySize=auto;html=1;exitX=0;exitY=0.5;exitDx=0;exitDy=0;entryX=1;entryY=0.5;entryDx=0;entryDy=0;endArrow=none;endFill=0;" edge="1" parent="1" source="ZQklRnI-i_4SyAPOa3xh-42" target="ZQklRnI-i_4SyAPOa3xh-6">
          <mxGeometry relative="1" as="geometry" />
        </mxCell>
        <mxCell id="ZQklRnI-i_4SyAPOa3xh-42" value="&lt;span style=&quot;border-bottom: 1px dotted&quot;&gt;Name&lt;/span&gt;" style="ellipse;whiteSpace=wrap;html=1;align=center;shadow=0;gradientColor=none;" vertex="1" parent="1">
          <mxGeometry x="810" y="400" width="100" height="40" as="geometry" />
        </mxCell>
        <mxCell id="ZQklRnI-i_4SyAPOa3xh-43" style="edgeStyle=none;rounded=0;orthogonalLoop=1;jettySize=auto;html=1;exitX=0;exitY=0.5;exitDx=0;exitDy=0;entryX=1;entryY=0.5;entryDx=0;entryDy=0;endArrow=none;endFill=0;" edge="1" parent="1" source="ZQklRnI-i_4SyAPOa3xh-45" target="ZQklRnI-i_4SyAPOa3xh-1">
          <mxGeometry relative="1" as="geometry" />
        </mxCell>
        <mxCell id="ZQklRnI-i_4SyAPOa3xh-44" style="edgeStyle=none;rounded=0;orthogonalLoop=1;jettySize=auto;html=1;exitX=1;exitY=0.5;exitDx=0;exitDy=0;entryX=0;entryY=0.5;entryDx=0;entryDy=0;endArrow=none;endFill=0;" edge="1" parent="1" source="ZQklRnI-i_4SyAPOa3xh-45" target="ZQklRnI-i_4SyAPOa3xh-3">
          <mxGeometry relative="1" as="geometry" />
        </mxCell>
        <mxCell id="ZQklRnI-i_4SyAPOa3xh-45" value="Manage" style="shape=rhombus;perimeter=rhombusPerimeter;whiteSpace=wrap;html=1;align=center;shadow=0;gradientColor=none;" vertex="1" parent="1">
          <mxGeometry x="410" y="110" width="120" height="60" as="geometry" />
        </mxCell>
        <mxCell id="ZQklRnI-i_4SyAPOa3xh-46" style="edgeStyle=none;rounded=0;orthogonalLoop=1;jettySize=auto;html=1;exitX=1;exitY=0;exitDx=0;exitDy=0;endArrow=none;endFill=0;" edge="1" parent="1" source="ZQklRnI-i_4SyAPOa3xh-33" target="ZQklRnI-i_4SyAPOa3xh-33">
          <mxGeometry relative="1" as="geometry" />
        </mxCell>
        <mxCell id="ZQklRnI-i_4SyAPOa3xh-47" style="edgeStyle=none;rounded=0;orthogonalLoop=1;jettySize=auto;html=1;exitX=0.5;exitY=0;exitDx=0;exitDy=0;endArrow=none;endFill=0;" edge="1" parent="1" source="ZQklRnI-i_4SyAPOa3xh-48" target="ZQklRnI-i_4SyAPOa3xh-45">
          <mxGeometry relative="1" as="geometry" />
        </mxCell>
        <mxCell id="ZQklRnI-i_4SyAPOa3xh-48" value="Start Date" style="ellipse;whiteSpace=wrap;html=1;align=center;shadow=0;gradientColor=none;" vertex="1" parent="1">
          <mxGeometry x="420" y="70" width="80" height="30" as="geometry" />
        </mxCell>
        <mxCell id="ZQklRnI-i_4SyAPOa3xh-49" style="edgeStyle=none;rounded=0;orthogonalLoop=1;jettySize=auto;html=1;exitX=0.5;exitY=1;exitDx=0;exitDy=0;entryX=0.5;entryY=0;entryDx=0;entryDy=0;endArrow=none;endFill=0;" edge="1" parent="1" source="ZQklRnI-i_4SyAPOa3xh-51" target="ZQklRnI-i_4SyAPOa3xh-5">
          <mxGeometry relative="1" as="geometry" />
        </mxCell>
        <mxCell id="ZQklRnI-i_4SyAPOa3xh-50" style="edgeStyle=none;rounded=0;orthogonalLoop=1;jettySize=auto;html=1;exitX=0.5;exitY=0;exitDx=0;exitDy=0;entryX=0.5;entryY=1;entryDx=0;entryDy=0;endArrow=none;endFill=0;" edge="1" parent="1" source="ZQklRnI-i_4SyAPOa3xh-51" target="ZQklRnI-i_4SyAPOa3xh-1">
          <mxGeometry relative="1" as="geometry" />
        </mxCell>
        <mxCell id="ZQklRnI-i_4SyAPOa3xh-51" value="Control" style="shape=rhombus;perimeter=rhombusPerimeter;whiteSpace=wrap;html=1;align=center;shadow=0;gradientColor=none;" vertex="1" parent="1">
          <mxGeometry x="210" y="260" width="120" height="60" as="geometry" />
        </mxCell>
        <mxCell id="ZQklRnI-i_4SyAPOa3xh-52" style="edgeStyle=none;rounded=0;orthogonalLoop=1;jettySize=auto;html=1;exitX=1;exitY=0.5;exitDx=0;exitDy=0;entryX=0;entryY=0.5;entryDx=0;entryDy=0;endArrow=none;endFill=0;" edge="1" parent="1" source="ZQklRnI-i_4SyAPOa3xh-54" target="ZQklRnI-i_4SyAPOa3xh-3">
          <mxGeometry relative="1" as="geometry" />
        </mxCell>
        <mxCell id="ZQklRnI-i_4SyAPOa3xh-53" style="edgeStyle=none;rounded=0;orthogonalLoop=1;jettySize=auto;html=1;exitX=0;exitY=0.5;exitDx=0;exitDy=0;entryX=1;entryY=0.5;entryDx=0;entryDy=0;endArrow=none;endFill=0;" edge="1" parent="1" source="ZQklRnI-i_4SyAPOa3xh-54" target="ZQklRnI-i_4SyAPOa3xh-1">
          <mxGeometry relative="1" as="geometry" />
        </mxCell>
        <mxCell id="ZQklRnI-i_4SyAPOa3xh-54" value="Assigned" style="shape=rhombus;perimeter=rhombusPerimeter;whiteSpace=wrap;html=1;align=center;shadow=0;gradientColor=none;" vertex="1" parent="1">
          <mxGeometry x="415" y="190" width="120" height="60" as="geometry" />
        </mxCell>
        <mxCell id="ZQklRnI-i_4SyAPOa3xh-55" style="edgeStyle=none;rounded=0;orthogonalLoop=1;jettySize=auto;html=1;exitX=1;exitY=0.5;exitDx=0;exitDy=0;entryX=0;entryY=0.5;entryDx=0;entryDy=0;endArrow=none;endFill=0;" edge="1" parent="1" source="ZQklRnI-i_4SyAPOa3xh-56" target="ZQklRnI-i_4SyAPOa3xh-3">
          <mxGeometry relative="1" as="geometry" />
        </mxCell>
        <mxCell id="ZQklRnI-i_4SyAPOa3xh-56" value="Work on" style="shape=rhombus;perimeter=rhombusPerimeter;whiteSpace=wrap;html=1;align=center;shadow=0;gradientColor=none;" vertex="1" parent="1">
          <mxGeometry x="410" y="290" width="120" height="60" as="geometry" />
        </mxCell>
        <mxCell id="ZQklRnI-i_4SyAPOa3xh-57" style="edgeStyle=none;rounded=0;orthogonalLoop=1;jettySize=auto;html=1;exitX=0.5;exitY=0;exitDx=0;exitDy=0;entryX=0.5;entryY=1;entryDx=0;entryDy=0;endArrow=none;endFill=0;" edge="1" parent="1" source="ZQklRnI-i_4SyAPOa3xh-58" target="ZQklRnI-i_4SyAPOa3xh-56">
          <mxGeometry relative="1" as="geometry" />
        </mxCell>
        <mxCell id="ZQklRnI-i_4SyAPOa3xh-58" value="Hours" style="ellipse;whiteSpace=wrap;html=1;align=center;shadow=0;gradientColor=none;" vertex="1" parent="1">
          <mxGeometry x="460" y="360" width="100" height="40" as="geometry" />
        </mxCell>
        <mxCell id="ZQklRnI-i_4SyAPOa3xh-59" style="edgeStyle=none;rounded=0;orthogonalLoop=1;jettySize=auto;html=1;exitX=0.5;exitY=0;exitDx=0;exitDy=0;entryX=1;entryY=0.75;entryDx=0;entryDy=0;endArrow=none;endFill=0;" edge="1" parent="1" source="ZQklRnI-i_4SyAPOa3xh-61" target="ZQklRnI-i_4SyAPOa3xh-3">
          <mxGeometry relative="1" as="geometry" />
        </mxCell>
        <mxCell id="ZQklRnI-i_4SyAPOa3xh-60" style="edgeStyle=none;rounded=0;orthogonalLoop=1;jettySize=auto;html=1;exitX=0;exitY=0.5;exitDx=0;exitDy=0;endArrow=none;endFill=0;" edge="1" parent="1" source="ZQklRnI-i_4SyAPOa3xh-61" target="ZQklRnI-i_4SyAPOa3xh-3">
          <mxGeometry relative="1" as="geometry" />
        </mxCell>
        <mxCell id="ZQklRnI-i_4SyAPOa3xh-61" value="Supervise" style="shape=rhombus;perimeter=rhombusPerimeter;whiteSpace=wrap;html=1;align=center;shadow=0;gradientColor=none;" vertex="1" parent="1">
          <mxGeometry x="770" y="200" width="120" height="60" as="geometry" />
        </mxCell>
      </root>
    </mxGraphModel>
  </diagram>
</mxfile>
